<?xml version="1.0" ?><!DOCTYPE svg  PUBLIC '-//W3C//DTD SVG 1.1//EN'  'http://www.w3.org/Graphics/SVG/1.1/DTD/svg11.dtd'><svg height="512px" style="enable-background:new 0 0 512 512;" version="1.1" viewBox="0 0 512 512" width="512px" xml:space="preserve" xmlns="http://www.w3.org/2000/svg" xmlns:xlink="http://www.w3.org/1999/xlink"><g id="_x36_17_x2C__chocolate_x2C__love_x2C__food_x2C__sweet"><g><path d="M364.751,286.254l1.94,170.35H147.271v-199.35L364.751,286.254z" style="fill:#49BAA5;"/><polygon points="155.35,270.342 364.888,298.281 364.751,286.254 147.271,257.254 147.271,456.604     155.35,456.604   " style="fill:#38A08C;"/><polygon points="364.731,193.824 419.101,293.504 364.751,286.254 147.271,257.254 219.76,236.114     292.251,214.964   " style="fill:#415A6B;"/><polygon points="217.427,246.685 289.918,225.535 362.398,204.395 410.366,292.34 419.101,293.504     364.731,193.824 292.251,214.964 219.76,236.114 147.271,257.254 170.542,260.357   " style="fill:#304956;"/><polygon points="364.731,193.824 292.251,214.964 292.251,193.824   " style="fill:#743629;"/><polygon points="298.209,199.782 344.304,199.782 364.731,193.824 292.251,193.824 292.251,214.964     298.209,213.227   " style="fill:#632A21;"/><polygon points="292.251,193.824 292.251,214.964 219.76,236.114 219.76,193.824   " style="fill:#743629;"/><polygon points="227.01,201.374 292.251,201.374 292.251,193.824 219.76,193.824 219.76,236.114     227.01,233.999   " style="fill:#632A21;"/><polygon points="219.76,193.824 219.76,236.114 147.271,257.254 147.271,193.824   " style="fill:#743629;"/><polygon points="154.771,201.449 219.76,201.449 219.76,193.824 147.271,193.824 147.271,257.254     154.771,255.067   " style="fill:#632A21;"/><rect height="63.43" style="fill:#743629;" width="72.49" x="147.271" y="130.395"/><polygon points="155.521,138.77 219.76,138.77 219.76,130.395 147.271,130.395 147.271,193.824     155.521,193.824   " style="fill:#632A21;"/><rect height="63.43" style="fill:#743629;" width="72.491" x="219.76" y="130.395"/><polygon points="226.885,138.145 292.251,138.145 292.251,130.395 219.76,130.395 219.76,193.824     226.885,193.824   " style="fill:#632A21;"/><rect height="63.43" style="fill:#743629;" width="72.48" x="292.251" y="130.395"/><polygon points="299.251,138.145 364.731,138.145 364.731,130.395 292.251,130.395 292.251,193.824     299.251,193.824   " style="fill:#632A21;"/><rect height="63.43" style="fill:#743629;" width="72.48" x="292.251" y="66.964"/><polygon points="300.251,74.964 364.731,74.964 364.731,66.964 292.251,66.964 292.251,130.395     300.251,130.395   " style="fill:#632A21;"/><rect height="63.43" style="fill:#743629;" width="72.491" x="219.76" y="66.964"/><polygon points="227.761,75.798 292.251,75.798 292.251,66.964 219.76,66.964 219.76,130.395     227.761,130.395   " style="fill:#632A21;"/><rect height="63.43" style="fill:#743629;" width="72.49" x="147.271" y="66.964"/><polygon points="156.325,77.631 219.76,77.631 219.76,66.964 147.271,66.964 147.271,130.395     156.325,130.395   " style="fill:#632A21;"/><path d="M102.661,190.765c12.57,12.56,7.25,32.19,7.36,57.21c-25.02-0.11-44.63,5.19-57.19-7.38    c-6.94-6.93-6.99-18.14-0.11-25.02c6.22-6.23,12.48-6.2,21.88-3.03c-3.17-9.4-3.2-15.65,3.03-21.88    C84.521,183.774,95.721,183.824,102.661,190.765z" style="fill:#EF3E5C;"/><g><g><g><path d="M102.661,190.765c-6.94-6.94-18.14-6.99-25.03-0.1c-2.375,2.375-3.835,4.755-4.563,7.31       c6.839-4.392,16.069-3.568,22.094,2.457c10.921,10.912,8.339,27.165,7.545,47.649c2.384-0.073,4.821-0.118,7.314-0.106       C109.911,222.955,115.23,203.324,102.661,190.765z" style="fill:#E42A53;"/></g></g></g><path d="M459.271,405.055c6.891,6.891,6.841,18.1-0.1,25.029c-12.56,12.57-32.189,7.25-57.2,7.361    c0.11-25.021-5.189-44.631,7.37-57.191c6.94-6.939,18.141-6.99,25.021-0.109c6.229,6.23,6.199,12.48,3.029,21.881    C446.791,398.854,453.041,398.824,459.271,405.055z" style="fill:#EF3E5C;"/><g><g><g><path d="M416.675,388.422c5.884-5.885,14.819-6.795,21.598-2.752c-0.829-1.895-2.098-3.713-3.911-5.525       c-6.88-6.881-18.08-6.83-25.021,0.109c-12.56,12.561-7.26,32.17-7.37,57.191c2.454-0.012,4.854,0.031,7.202,0.104       C408.462,416.361,405.498,399.598,416.675,388.422z" style="fill:#E42A53;"/></g></g></g><rect height="18.119" style="fill:#38A08C;" width="18.12" x="301.311" y="411.295"/><rect height="18.119" style="fill:#38A08C;" width="18.12" x="301.311" y="384.115"/><rect height="18.131" style="fill:#38A08C;" width="18.12" x="301.311" y="356.924"/><rect height="18.121" style="fill:#38A08C;" width="18.12" x="301.311" y="329.744"/><rect height="18.119" style="fill:#38A08C;" width="18.12" x="301.311" y="302.564"/><rect height="18.119" style="fill:#38A08C;" width="18.13" x="274.121" y="411.295"/><rect height="18.119" style="fill:#38A08C;" width="18.12" x="246.94" y="411.295"/><rect height="18.119" style="fill:#38A08C;" width="18.12" x="219.76" y="411.295"/><rect height="18.119" style="fill:#38A08C;" width="18.12" x="192.57" y="411.295"/><rect height="18.119" style="fill:#38A08C;" width="18.12" x="192.57" y="384.115"/><rect height="18.131" style="fill:#38A08C;" width="18.12" x="192.57" y="356.924"/><rect height="18.121" style="fill:#38A08C;" width="18.12" x="192.57" y="329.744"/><rect height="18.119" style="fill:#38A08C;" width="18.12" x="192.57" y="302.564"/><path d="M74.78,393.174c10,0,18.12,8.111,18.12,18.121s-8.12,18.119-18.12,18.119    c-10.01,0-18.13-8.109-18.13-18.119S64.771,393.174,74.78,393.174z" style="fill:#EF3E5C;"/><path d="M61.193,422.795c0-10.01,8.12-18.121,18.13-18.121c5.396,0,10.231,2.375,13.552,6.123    c-0.267-9.777-8.263-17.623-18.095-17.623c-10.01,0-18.13,8.111-18.13,18.121c0,4.607,1.735,8.799,4.568,11.996    C61.214,423.125,61.193,422.963,61.193,422.795z" style="fill:#E42A53;"/><path d="M92.88,55.396c10,0,18.12,8.11,18.12,18.12s-8.12,18.12-18.12,18.12    c-10.01,0-18.13-8.11-18.13-18.12S82.871,55.396,92.88,55.396z" style="fill:#EF3E5C;"/><path d="M79.293,85.016c0-10.01,8.12-18.12,18.13-18.12c5.396,0,10.231,2.375,13.552,6.122    c-0.267-9.777-8.263-17.622-18.095-17.622c-10.01,0-18.13,8.11-18.13,18.12c0,4.607,1.735,8.8,4.568,11.996    C79.314,85.346,79.293,85.184,79.293,85.016z" style="fill:#E42A53;"/><path d="M419.104,151.381c10,0,18.121,8.11,18.121,18.12s-8.121,18.12-18.121,18.12    c-10.01,0-18.129-8.11-18.129-18.12S409.095,151.381,419.104,151.381z" style="fill:#EF3E5C;"/><path d="M405.519,181.001c0-10.01,8.119-18.12,18.129-18.12c5.396,0,10.231,2.375,13.553,6.122    c-0.267-9.777-8.264-17.622-18.096-17.622c-10.01,0-18.129,8.11-18.129,18.12c0,4.607,1.734,8.8,4.567,11.996    C405.538,181.332,405.519,181.169,405.519,181.001z" style="fill:#E42A53;"/></g></g><g id="Layer_1"/></svg>